<?xml version="1.0" encoding="iso-8859-1"?>
<!-- Generator: Adobe Illustrator 19.0.0, SVG Export Plug-In . SVG Version: 6.00 Build 0)  -->
<svg version="1.1" id="Layer_1" xmlns="http://www.w3.org/2000/svg" xmlns:xlink="http://www.w3.org/1999/xlink" x="0px" y="0px"
	 viewBox="0 0 512.003 512.003" style="enable-background:new 0 0 512.003 512.003;" xml:space="preserve">
<path style="fill:#7AC943;" d="M492.982,431.469c-1.341-11.484-9.694-15.112-17.448-21.589c-0.474-0.741-1.029-1.442-1.668-2.083
	c-5.486-5.493-9.891-12.362-14.187-18.994c-4.945-7.634-11.284-13.876-16.863-20.989c-6.149-7.842-13.129-14.243-20.473-20.934
	c-7.458-6.794-14.414-14.141-21.595-21.224c-3.103-3.062-6.497-5.884-9.803-8.727c-1.421-1.223-3.148-2.234-4.451-3.548
	c-1.552-1.566-2.669-3.67-4.272-5.262c-6.417-6.374-14.042-11.931-20.971-17.892c-7.313-6.291-15.183-11.898-22.481-18.159
	c-6.861-5.885-13.181-12.281-19.972-18.221c-6.97-6.097-12.421-13.443-19.949-19.008c-7.184-5.311-13.507-11.322-20.171-17.294
	c-13.976-12.523-25.644-27.431-38.678-40.87c-13.092-13.5-26.08-26.869-39.403-40.203c-2.898-2.9-6.119-5.648-8.789-8.761
	c-3.16-3.686-5.607-7.673-9.237-10.983c-3.83-3.495-8.163-6.25-12.266-9.386c-3.517-2.689-6.589-5.924-9.897-8.862
	c-7.132-6.334-14.612-11.768-21.613-18.3c-4.004-3.737-7.504-7.987-11.323-11.907c-3.166-3.252-6.664-5.908-9.753-9.181
	c-3.013-3.191-7.034-5.775-10.419-8.608c-4.228-3.54-8.343-6.782-12.894-9.862c-3.897-2.639-6.812-5.966-10.377-8.941
	c-0.766-0.64-1.569-1.267-2.382-1.892c-0.062-1.537-0.473-3.083-1.268-4.926c-2.569-5.953-13.028-5.895-15.618,0
	c-2.619,5.961-1.306,10.704-0.886,16.946c0.457,6.807,1.065,13.643,1.211,20.465c0.3,13.968,0.799,27.96,0.689,41.925
	c-0.206,26.225,1.077,52.353,0.68,78.543c-0.09,5.922,0.092,11.932-0.345,17.842c-0.53,7.161-1.563,13.789-1.059,20.955
	c0.895,12.768-0.098,25.96-0.168,38.77c-0.073,13.505,0.766,27.332-0.927,40.698c-0.799,6.309-1.053,12.371-1.025,18.726
	c0.013,2.96,0.247,5.996,0.068,8.953c-0.162,2.695-0.968,5.523-1.025,8.329c-0.298,14.773-0.897,29.715-0.677,44.474
	c0.214,14.338-5.381,31.246,4.041,43.667c3.451,4.549,7.915,6.846,13.677,5.566c4.275-0.95,8.95-2.403,13.317-2.551
	c6.377-0.215,12.553-0.768,18.854-1.848c5.012-0.858,9.899-2.023,14.987-2.324c5.766-0.34,11.526-0.154,17.289-0.665
	c3.058-0.271,6.096-0.513,9.125-0.688c3.845,2.325,7.836,4.426,12.196,5.68c10.732,3.084,22.26,2.99,33.314,3.233
	c9.235,0.203,18.5,0.627,27.705,0.098c5.356,0.889,10.783,2.129,16.169,2.55c11.695,0.913,23.366,2.403,35.082,3.412
	c10.873,0.938,21.833,2.477,32.752,2.44c11.886-0.04,23.737,1.3,35.614,1.121c6.966-0.106,13.827-1.304,20.77-1.758
	c6.69-0.438,13.396-0.502,20.084-0.981c6.84-0.49,13.765-0.753,20.46-1.949c0.417,0.004,0.833,0.021,1.25,0.021
	c2.993-0.002,5.73,0.644,8.704,0.885c3.362,0.272,6.718-0.164,10.084,0.084c6.116,0.451,11.994,0.243,18.108,0.366
	c2.873,0.057,5.395,0.933,8.208,1.475c3.77,0.727,7.176,0.513,10.956,0.534c5.85,0.032,11.402,2.715,17.255,3.293
	C487.095,443.72,493.664,437.31,492.982,431.469z"/>
<path style="fill:#FFC60B;" d="M135.415,84.916c-1.51-3.852-5.337-6.721-9.352-5.964c-2.484-2.799-4.547-6.108-7.396-8.503
	c-4.769-4.009-8.76-8.739-13.859-12.514c-2.179-1.612-4.821-2.782-6.774-4.651c-2.061-1.972-3.36-4.728-4.778-7.166
	C90.211,40.88,85.92,35.964,80.45,33.13c-1.554-0.805-3.452-1.153-5.338-1.047c-1.44-4.181-3.171-8.326-3.79-12.347
	c-0.053,0.015-0.108,0.029-0.162,0.045c-1.152-3.372-6.628-4.285-7.433-0.045c-1.029,5.415-0.46,12.464,0.377,17.847
	c1.233,7.94,1.215,16.621,1.462,24.695c0.246,8.036-0.742,16.18-0.079,24.186c0.651,7.855,1.07,15.47-0.591,23.27
	c-1.11,5.213,2.313,9.948,7.736,10.155c1.113,0.043,2.279,0.047,3.365-0.24c-0.321,0.085,1.841-0.668,2.692-1.08
	c0.681,0.045,1.729,0.053,1.882,0.058c1.525,0.049,3.053,0.074,4.579,0.091c4.922,0.058,9.201-0.869,13.539-2.665
	c0.509,0.023,1.054,0.012,1.646-0.04c4.483-0.396,8.215-2.786,11.666-5.518c1.712-1.355,3.266-2.777,4.734-4.271
	c1.363-0.641,2.636-1.342,3.959-2.332c2.046-1.057,3.957-2.608,5.597-4.184c0.561-0.306,1.147-0.579,1.777-0.8
	c2.813-0.991,4.797-3.112,5.764-5.563C135.684,90.981,136.625,88.004,135.415,84.916z"/>
<path style="fill:#BA3838;" d="M482.713,419.692c-5.624-3.911-10.789-8.745-16.266-12.925c-0.157-0.12-0.308-0.248-0.464-0.368
	c-0.865-3.678-2.139-7.118-4.514-10.296c-3.479-4.655-7.16-9.083-10.568-13.795c-2.72-3.761-4.103-7.679-6.396-11.575
	c-3.146-5.342-10.141-7.578-15.7-4.638c-0.49-0.389-1.059-0.722-1.761-0.936c-13.296-4.054-19.733,13.996-22.188,23.586
	c-0.59,2.303-1.128,4.66-1.608,7.038c-1.604,2.793-2.774,5.856-3.473,8.756c-1.571,6.521-1.507,16.288,1.222,23.996
	c0.134,0.9,0.303,1.801,0.514,2.704c0.511,2.171,2.175,4.188,4.206,5.276c0.247,0.253,0.483,0.52,0.745,0.753
	c3.363,2.973,8.63,3.885,12.239,0.968c2.065,0.095,4.126,0.238,6.174,0.608c6.723,1.212,13.681,1.279,20.48,1.904
	c6.147,0.565,12.598,0.047,18.778,0.019c6.747-0.03,13.617,1.429,20.25,0.399c3.186-0.495,5.551-3.637,6.469-6.469
	C493.147,427.62,487.823,423.245,482.713,419.692z"/>
<path style="fill:#0083CA;" d="M124.921,406.856c0.412-3.766,0.451-7.608,0.597-10.988c0.353-8.152,2.595-21.782-4.582-27.581
	c-2.724-2.201-5.364-2.236-8.593-2.637c-4.013-0.499-8.028-1.35-12.066-1.639c-4.117-0.296-8.184,0.687-12.154,0.904
	c-2.342,0.128-4.705-0.185-7.051-0.114c-6.634,0.199-14.163,2.15-16.016,9.528c-1.159,4.617,1.526,8.421,2.042,12.866
	c0.077,0.66,0.158,1.302,0.243,1.937c-0.304,1.603-0.683,3.194-1.003,4.869c-0.338,1.777-0.417,3.545-0.728,5.26
	c-3.627,2.297-6.107,5.99-5.977,11.047c0.118,4.588,3.521,10.607,8.609,11.306c5.418,0.745,10.967,1.307,16.425,1.777
	c4.741,0.407,9.638-0.447,14.327,0.238c4.243,0.62,8.461,1.447,12.296,1.096c3.05,1.504,7.132,1.284,9.904-0.338
	c4.131-2.416,5.545-7.056,4.703-11.559C125.536,410.883,125.218,408.882,124.921,406.856z"/>
<path d="M510.62,433.954c-2.642-3.439-4.143-7.512-6.599-11.069c-3.02-4.374-6.426-8.502-10.099-12.335
	c-3.2-3.34-5.373-6.944-8.196-10.545c-2.855-3.643-6.685-6.188-10.02-9.356c-8.409-7.988-16.249-16.576-24.647-24.58
	c-3.721-3.547-7.742-6.666-11.627-10.015c-4.146-3.575-7.63-7.801-11.592-11.564c-7.349-6.98-15.433-12.999-22.542-20.295
	c-3.345-3.433-7.19-5.981-10.803-9.076c-3.729-3.194-5.991-7.825-9.356-11.399c-7.284-7.735-16.042-13.919-23.496-21.486
	c-7.641-7.757-14.308-16.391-22.16-23.952c-8.103-7.803-16.768-14.994-24.795-22.882c-3.276-3.219-6.732-6.244-10.006-9.462
	c-3.452-3.391-5.942-7.304-8.981-11.028c-3.063-3.753-6.925-6.54-10.583-9.665c-3.636-3.107-6.232-7.006-9.669-10.273
	c-3.121-2.966-6.784-5.213-10.167-7.839c-4.246-3.298-7.667-7.535-11.721-11.056c-8.117-7.048-16.579-13.697-24.715-20.726
	c-3.72-3.214-7.017-6.858-10.448-10.369c-3.804-3.894-7.962-6.879-12.194-10.243c-3.604-2.866-6.345-6.74-9.7-9.894
	c-4.018-3.779-8.364-7.185-12.348-11.011c-7.292-7.002-14.066-14.514-21.134-21.736c-8.355-8.537-17.717-15.714-26.479-23.78
	c-8.571-7.892-16.864-15.923-25.784-23.436c-4.357-3.67-8.46-7.327-12.387-11.447c-3.795-3.982-8.517-6.611-12.731-10.073
	c-3.519-2.892-5.73-6.822-9.441-9.576c-4.025-2.988-7.943-6.272-12.741-7.893c-2.984-1.009-5.054,1.903-4.639,4.424
	c-0.094,0.327-0.162,0.675-0.171,1.064c-0.697,30.675-0.86,61.357-1.497,92.033c-0.068,3.295-0.24,6.582-0.456,9.865
	c-0.09,0.034-0.173,0.056-0.264,0.092c-1.786,0.709-2.067,3.303-0.023,3.928c-0.722,9.5-1.702,18.985-1.834,28.55
	c-0.197,14.3-0.161,28.618-0.122,42.919c0.018,6.574,0.676,13.517-0.461,20.017c-1.175,6.713-1.939,12.63-1.851,19.484
	c0.182,14.13-1.244,28.245-1.913,42.346c-0.698,14.715-0.511,29.475-0.602,44.203c-0.095,15.083-1.329,30.527-0.492,45.577
	c0.34,6.129,1.859,11.893,1.764,18.077c-0.119,7.748,1.555,15.261,1.774,23c0.261,9.209-3.686,25.787,6.176,31.421
	c3.957,2.262,9.277,2.35,13.652,2.915c7.701,0.995,15.346,1.165,23.104,1.105c7.02-0.053,14.04-0.163,21.06-0.193
	c6.952-0.03,14.161-0.856,21.05,0.241c6.413,1.023,12.18,1.368,18.646,1.645c6.424,0.276,12.688,1.742,19.172,1.802
	c13.175,0.12,25.99,3.941,39.19,4.784c14.677,0.936,29.475,0.955,44.175,0.753c14.323-0.196,28.712-0.361,42.89,1.378
	c15.095,1.851,30.344-1.125,45.4,1.135c16.262,2.44,31.495,4.215,47.916,2.374c15.798-1.77,31.431-0.632,47.164,0.957
	c7.69,0.777,15.577,0.388,23.302,0.387c1.716,0,3.404-0.085,5.099-0.185c2.043,0.18,4.077,0.396,6.075,0.714
	c1.059,0.168,2.074,0.315,3.072,0.439c2.353,1.274,4.881,1.142,7.051,0.137c1.46-0.173,2.944-0.483,4.505-1.024
	c2.445-0.846,4.891-1.988,7.184-3.183c1.425-0.744,2.969-2.213,4.622-2.149C509.175,447.164,514.648,439.194,510.62,433.954z
	 M77.937,33.726c7.203,6.03,13.482,12.73,20.511,18.932c7.701,6.795,15.181,13.666,22.432,20.945
	c4.69,4.708,9.705,9.004,14.681,13.355c-0.938,1.473-1.829,2.972-2.817,4.142c-6.276,7.426-15.44,16.232-24.966,19.052
	c-4.393,1.301-9.085,1.732-13.555,2.764c-5.078,1.173-10.147,2.392-15.34,2.941c-4.723,0.499-7.565-0.126-11.551-1.592
	c0.035-0.564,0.067-1.126,0.103-1.69c1.091-16.611,0.039-33.528-0.14-50.168c-0.158-14.721-0.536-29.439-0.886-44.157
	C70.347,23.288,73.004,29.595,77.937,33.726z M123.208,371.994c-0.114,5.189-0.455,10.62-1.068,15.775
	c-1.265,10.65-4.335,21.278-1.15,31.905c0.129,0.43,0.305,0.834,0.507,1.222c-9.035,0.13-18.131,0.734-27.064,0.665
	c-6.648-0.052-13.26-0.186-19.851-1.132c-0.051-0.007-3.546-0.702-5.997-1.131c-0.028-1.702-0.077-3.652-0.077-3.673
	c0.032-13.99-1.152-27.778-1.773-41.697c-0.049-1.09-0.151-2.169-0.271-3.245c0.759-0.073,1.525-0.18,2.291-0.296
	c4.61-0.688,9.289-0.339,13.818-1.189c5.722-1.075,10.75-1.924,16.647-1.701c5.777,0.219,11.53,0.889,17.311,1.035
	c1.919,0.049,4.489-0.371,6.363,0.125c0.098,0.038,0.18,0.064,0.261,0.091C123.241,369.828,123.269,370.91,123.208,371.994z
	 M394.664,385.84c-3.393,8.485-5.521,17.612-6.216,26.728c-0.534,7.005-1.457,15.802,2.459,22.12
	c-3.847,0.447-7.701,0.829-11.585,0.851c-14.18,0.078-27.961-3.924-42.089-4.201c-13.462-0.263-26.483,1.076-39.885-0.85
	c-6.764-0.973-13.366-0.193-20.15-0.12c-7.636,0.083-15.274-0.212-22.921-0.102c-13.928,0.199-27.966,0.154-41.865-0.821
	c-13.15-0.923-25.678-4.234-38.9-4.556c-6.131-0.15-12.116-1.736-18.229-1.704c-6.782,0.036-12.829-1.39-19.532-1.925
	c-0.118-0.01-0.237-0.011-0.355-0.021c0.871-1.845,1.321-3.456,1.469-5.544c0.129-1.815-0.512-3.34-1.567-4.499
	c-1.193-10.456,1.701-21.664,2.071-32.051c0.389-10.954,0.625-23.06-13.068-24.463c-5.367-0.55-10.912-0.095-16.31-0.325
	c-6.48-0.276-12.949-0.598-19.406,0.223c-3.376,0.429-6.105,1.697-9.344,2.523c-2.696,0.688-5.356,0.575-8.004,1.58
	c-1.989,0.756-4.052,1.741-6.041,2.865c-0.232-1.852-0.406-3.715-0.418-5.607c-0.047-8.062-0.029-16.125-0.102-24.187
	c-0.13-14.515-0.36-29.028-0.513-43.542c-0.151-14.328,0.63-28.595,1.087-42.909c0.214-6.688,0.277-13.359,0.002-20.044
	c-0.265-6.479,1.502-12.376,1.864-18.775c0.871-15.398-0.489-31.211-0.824-46.624c-0.265-12.2-0.057-24.226,0.523-36.325
	c0.378,0.204,0.756,0.407,1.147,0.576c3.836,1.666,7.893,1.355,11.988,1.021c9.751-0.793,20.075-2.741,29.554-5.159
	c9.205-2.349,17.354-8.996,24.107-15.414c3.155-3,6.846-6.259,9.233-9.921c0.157-0.241,0.293-0.49,0.432-0.738
	c0.286,0.269,0.576,0.53,0.861,0.8c7.337,6.981,14.08,14.548,21.035,21.901c6.902,7.296,14.638,13.624,21.663,20.751
	c3.31,3.359,6.124,7.02,9.87,9.924c4.268,3.309,8.104,6.603,11.831,10.545c7.019,7.424,14.843,13.823,22.39,20.68
	c3.799,3.451,8.051,6.358,11.866,9.791c3.757,3.379,7.03,7.258,10.934,10.481c3.287,2.713,7.009,4.871,10.091,7.83
	c3.649,3.502,6.436,7.628,10.332,10.929c3.351,2.841,6.93,5.421,9.629,8.928c2.986,3.879,5.629,7.786,9.125,11.255
	c7.231,7.173,14.683,14.198,22.229,21.039c8.261,7.489,16.276,15.053,23.643,23.436c6.899,7.85,13.931,15.245,21.845,22.088
	c3.739,3.233,7.499,6.447,11.002,9.937c3.552,3.539,5.883,7.99,9.362,11.571c3.046,3.135,6.988,5.26,10.155,8.27
	c4.015,3.817,7.822,7.859,11.869,11.654c4.08,3.827,8.702,7.008,12.756,10.857c0.181,0.173,0.353,0.356,0.533,0.531
	C406.273,363.775,399.067,374.828,394.664,385.84z M489.841,434.173c-2.143,1.109-3.869,1.589-5.575,1.73
	c-7.059-2.6-15.949-0.811-23.167-0.787c-13.275,0.045-26.282-1.6-39.513-1.767c-6.711-0.084-13.389-0.383-20.086,0.167
	c0.807-4.082-1.065-9.185-1.083-13.199c-0.041-8.923,0.382-17.697,2.623-26.378c3.244-12.561,10.005-22.493,19.149-30.787
	c1.655,1.727,3.334,3.429,5.152,4.995c9.476,8.162,18.348,16.682,27.186,25.544c4.267,4.279,8.376,8.744,13.028,12.608
	c3.912,3.248,5.978,6.782,9.075,10.719c3.168,4.027,7.05,7.394,10.194,11.446c1.338,1.724,2.46,3.569,3.53,5.44
	C490.183,433.993,490.014,434.084,489.841,434.173z"/>
<path d="M96.768,384.314c-0.268,0.071-0.535,0.123-0.809,0.163c0.077-0.011,0.154-0.021,0.23-0.03
	c-0.535,0.101-1.062,0.24-1.597,0.466c-0.088,0.036-0.168,0.075-0.253,0.113c-2.279-0.053-4.491,0.877-6.017,2.851
	c-2.312,2.993-1.975,7.056,0.585,9.813c2.341,2.522,6.283,3.413,9.543,2.461c3.422-1.001,6.144-3.694,6.957-7.196
	C106.613,387.748,102.091,382.924,96.768,384.314z"/>
<path d="M161.683,177.333c-2.737,1.476-7.166,0.12-10.152,0.061c-3.457-0.068-6.954-0.336-10.387-0.759
	c-5.494-0.677-9.626-2.73-13.265-5.812c5.15-4.189,9.801-8.815,14.541-13.81c1.943-2.048-1.018-4.989-3.09-3.09
	c-4.898,4.491-10.588,8.343-16.276,11.986c-0.486-0.572-0.97-1.154-1.456-1.761c-4.92-6.157-9.955-12.291-18.049-14.11
	c-7.838-1.762-16.785,0.894-22.52,6.479c-12.059,11.744-4.119,31.454,12.86,31.591c9.123,0.074,17.753-6.27,25.165-10.923
	c0.514-0.323,1.002-0.664,1.504-0.995c0.506,0.537,1.024,1.065,1.57,1.57c4.557,4.213,9.981,6.801,16.1,7.815
	c8.216,1.362,20.94,2.582,26.378-5.316C165.885,178.401,163.443,176.383,161.683,177.333z M95.133,180.233
	c-10.425,0.593-15.929-10.708-8.468-18.082c6.574-6.498,16.458-5.828,22.741,0.444c2.415,2.411,4.424,5.165,6.473,7.888
	C109.742,174.507,102.126,179.835,95.133,180.233z"/>
<path d="M327.403,353.737c-0.405-5.422-0.554-11.219-2.584-16.311c-0.608-1.524-2.506-1.526-3.114,0
	c-4.538,11.375-1.68,24.604-4.173,36.405c-1.946,9.21-4.545,20.189,4.221,26.795c1.359,1.025,3.262,0.128,4.094-1.074
	c2.977-4.297,1.322-8.129,1.131-12.954c-0.198-5.021,1.397-9.943,1.449-14.981C328.487,365.705,327.845,359.636,327.403,353.737z"/>
<path d="M348.159,346.856c3.09-4.579,4.615-9.616,1.649-14.429c-2.855-4.634-10.471-7.247-15.703-7.139
	c-2.609,0.055-4.054,1.361-6.4,2.258c-0.578,0.221-1.329-0.096-2.074,0.255c-2.377,1.122-2.997,2.853-5.367,4.396
	c-2.512,1.637-0.32,5.397,2.349,4.019c3.227-1.665,5.542-2.82,9.218-3.183c2.239-0.22,9.1,1.521,9.936,4.351
	c1.242,4.208-9.904,12.101-12.559,14.421c-3.801,3.324,0.21,10.325,5.011,8.608c4.262-1.525,15.005-5.583,19.07-2.043
	c2.087,1.817,1.357,7.163-0.034,9.277c-2.937,4.461-9.981,6.392-14.741,7.943c-3.203,1.043-4.73,6.363-1.043,7.987
	c8.151,3.59,18.394-1.352,23.855-7.893c4.374-5.238,5.382-13.815,2.935-20.115C361.58,348.666,355.092,346.664,348.159,346.856z"/>
<path d="M23.946,238.18c-0.224-0.282-0.468-0.541-0.702-0.812c0.303-0.991,0.614-1.978,0.989-2.946
	c1.441-3.738,3.593-7.034,4.99-10.698c0.33-0.865-0.096-1.806-0.648-2.45c-0.066-0.077-0.131-0.153-0.197-0.23
	c-0.139-0.162-0.315-0.237-0.5-0.28c0-0.004-0.001-0.009-0.001-0.012c-4.759-1.449-8.712,5.08-11.222,10.545
	c-2.181-1.728-4.409-3.413-6.474-5.325c-3.269-3.025-8.05,1.707-4.904,4.904c2.721,2.765,5.656,5.122,8.276,7.82
	c-1.814,3.975-4.251,7.63-6.871,11.198c-2.561,3.485-5.825,6.237-6.609,10.68c-0.891,5.05,6.662,7.298,7.804,2.151
	c0.754-3.396,4.224-5.737,6.234-8.489c1.718-2.352,3.726-4.891,5.343-7.516c2.409,3.773,4.793,6.764,9.177,8.919
	c1.442,0.709,3.393-0.473,2.861-2.2C29.75,247.768,27.715,242.94,23.946,238.18z"/>
<path d="M289.856,470.045c-1.491-4.482-5.704-8.16-6.017-12.998c-0.128-1.977-2.72-3.485-4.234-1.753
	c-2.179,2.49-4.472,4.944-6.899,7.191c-1.499,1.389-3.545,4.306-5.324,5.23c-5.224,2.714-7.822-5.562-10.416-8.844
	c-0.461-0.582-1.442-0.756-2.117-0.559c-0.423,0.124-0.848,0.247-1.271,0.371c-1.002,0.292-1.425,1.631-0.629,2.381
	c-0.244-0.23-0.075,0.063-0.039,0.918c0.032,0.75,0.107,1.373,0.221,2.123c0.303,1.976,0.957,4.084,1.779,5.915
	c1.79,3.979,5.079,7.21,9.59,7.703c8.336,0.912,12.255-6.45,15.659-13.226c0.968,2.416,2.186,4.776,2.731,7.471
	c0.941,4.656,0.784,11.266-0.986,15.687c-1.91,4.767-6.535,9.966-11.769,10.24c-3.552,0.186-6.614-1.329-9.849-2.47
	c-2.91-1.025-6.099-1.235-8.85-2.642c-1.56-0.798-4.036,0.565-3.28,2.521c2.755,7.129,11.073,9.868,18.191,10.789
	c7.562,0.979,13.883-1.323,19.125-6.863c5.029-5.315,6.839-11.498,6.221-18.732C291.396,477.032,290.958,473.357,289.856,470.045z"
	/>
<path d="M299.061,195.666c2.922,2.747,5.868,5.471,8.732,8.261c2.409,2.348,4.739,3.187,7.884,1.586
	c1.091-0.556,1.858-2.248,1.397-3.434c-2.386-6.135-6.952-8.917-12.189-12.585c-1.631-1.142-3.309-2.106-5.044-3.092
	c-0.632-0.359-2.426-1.094-3.951-1.857c0.548-0.237,1.098-0.451,1.648-0.584c1.829-0.441,3.357,0.26,5.13,0.126
	c2.77-0.208,4.579-1.161,7.597-0.872c4.424,0.424,7.533-0.742,11.79-1.187c2.505-0.263,4.999,0.243,7.327-1.031
	c5.341-2.924,4.117-9.494,1.353-13.732c-4.533-6.954-11.566-7.74-17.51-12.705c-1.028-0.858-2.933,0.285-2.014,1.554
	c3.261,4.512,7.369,8.468,10.173,13.27c0.49,0.839,0.895,2.414,1.546,3.181c-2.262-0.255-5.114,1.017-7.117,1.572
	c-3.104,0.862-6.347,0.689-9.449,1.519c-1.831,0.489-2.729,1.881-4.244,2.477c-1.312,0.517-3.266,0.276-4.763,0.814
	c-2.344,0.841-4.831,2.038-7.077,3.148c-0.986,0.488-1.283,1.694-1.09,2.679C290.113,189.491,295.827,192.625,299.061,195.666z"/>
<g>
</g>
<g>
</g>
<g>
</g>
<g>
</g>
<g>
</g>
<g>
</g>
<g>
</g>
<g>
</g>
<g>
</g>
<g>
</g>
<g>
</g>
<g>
</g>
<g>
</g>
<g>
</g>
<g>
</g>
</svg>
